<?xml version="1.0" encoding="UTF-8" standalone="no"?>
<svg
   width="500"
   zoomAndPan="magnify"
   viewBox="0 0 375 374.99999"
   height="500"
   preserveAspectRatio="xMidYMid"
   version="1.0"
   id="svg39"
   sodipodi:docname="UNSW Queer Collective-logo.svg"
   xml:space="preserve"
   inkscape:version="1.2.2 (b0a84865, 2022-12-01)"
   xmlns:inkscape="http://www.inkscape.org/namespaces/inkscape"
   xmlns:sodipodi="http://sodipodi.sourceforge.net/DTD/sodipodi-0.dtd"
   xmlns="http://www.w3.org/2000/svg"
   xmlns:svg="http://www.w3.org/2000/svg"><ellipse
     style="fill:#000000;stroke-width:0.808927"
     id="path876"
     cx="186.79744"
     cy="186.16635"
     rx="174.80705"
     ry="164.07883"
     inkscape:label="path876" /><path
     fill="#750787"
     d="M 0,0 H 375 V 375.00001 H 0 Z"
     id="path189"
     style="stroke-width:0.614045"
     mask="url(#mask1091)" /><path
     fill="#004dff"
     d="M 0,0 H 375 V 312.50001 H 0 Z"
     id="path191"
     style="stroke-width:0.614045"
     mask="url(#mask1057)" /><path
     fill="#008026"
     d="M 0,0 H 375 V 250.00001 H 0 Z"
     id="path193"
     style="stroke-width:0.614045"
     mask="url(#mask1023)" /><path
     fill="#ffed00"
     d="M 0,0 H 375 V 187.5 H 0 Z"
     id="path195"
     style="stroke-width:0.614045"
     mask="url(#mask989)" /><path
     fill="#ff8c00"
     d="M 0,0 H 375 V 125 H 0 Z"
     id="path197"
     style="stroke-width:0.614045"
     mask="url(#mask955)" /><path
     fill="#e40303"
     d="M 0,0 H 375 V 62.500002 H 0 Z"
     id="path199"
     style="stroke-width:0.614045"
     mask="url(#mask921)" /><sodipodi:namedview
     id="namedview41"
     pagecolor="#ffffff"
     bordercolor="#000000"
     borderopacity="0.25"
     inkscape:showpageshadow="2"
     inkscape:pageopacity="0.0"
     inkscape:pagecheckerboard="0"
     inkscape:deskcolor="#d1d1d1"
     showgrid="false"
     inkscape:zoom="1.1884532"
     inkscape:cx="230.13107"
     inkscape:cy="298.28689"
     inkscape:window-width="1504"
     inkscape:window-height="1639"
     inkscape:window-x="2944"
     inkscape:window-y="25"
     inkscape:window-maximized="0"
     inkscape:current-layer="svg39" /><defs
     id="defs11"><clipPath
       id="3e6bae8208"><path
         d="M 187.5,0 C 83.945312,0 0,83.945312 0,187.5 0,291.05469 83.945312,375 187.5,375 291.05469,375 375,291.05469 375,187.5 375,83.945312 291.05469,0 187.5,0"
         clip-rule="nonzero"
         id="path651" /></clipPath><clipPath
       id="839ba0e78e"><path
         d="M 80.390625,110 H 271.64062 V 359.80078 H 80.390625 Z m 0,0"
         clip-rule="nonzero"
         id="path654" /></clipPath><clipPath
       id="7b18dbd44c"><path
         d="m 142.19141,352.46484 h 94.46093 v 13.42578 h -94.46093 z m 0,0"
         clip-rule="nonzero"
         id="path657" /></clipPath><mask
       maskUnits="userSpaceOnUse"
       id="mask921"><g
         id="g953"><g
           id="g951"
           transform="scale(0.99688476,0.99999996)"><path
             fill="#000000"
             d="M 0,0 H 376.17187 V 374.41406 H 0 Z m 0,0"
             fill-opacity="1"
             fill-rule="nonzero"
             id="path923" /><g
             clip-path="url(#3e6bae8208)"
             id="g927"><path
               stroke-linecap="butt"
               transform="matrix(0.75,0,0,0.75,4.5e-6,0)"
               fill="none"
               stroke-linejoin="miter"
               d="M 249.99999,0 C 111.92708,0 -6e-6,111.92708 -6e-6,250 -6e-6,388.07292 111.92708,500 249.99999,500 388.07291,500 500,388.07292 500,250 500,111.92708 388.07291,0 249.99999,0"
               stroke="#ffffff"
               stroke-width="72"
               stroke-opacity="1"
               stroke-miterlimit="4"
               id="path925" /></g><path
             fill="#ffffff"
             d="m 184.46094,181.62891 c -0.49219,1.3164 -0.8125,2.66796 -0.94922,4.04296 -0.15625,1.51563 -0.11328,3.04297 0.16797,4.55469 0.16797,0.90625 0.38281,1.8086 0.70703,2.69141 1.51172,4.08203 4.51172,7.32422 8.46875,9.14062 2.15625,0.99219 4.4414,1.49219 6.79297,1.49219 2.92187,0 5.71484,-0.82031 8.15625,-2.24219 1.32031,-0.76562 2.53125,-1.71093 3.60156,-2.82422 0.95312,-0.99218 1.77734,-2.125 2.46094,-3.35546 0.19531,-0.35547 0.41797,-0.69532 0.58593,-1.07032 0,0 32.4961,-70.6289 32.56641,-70.77343 0.0664,-0.15235 0.98047,-2.85157 1.17578,-3.94141 1.27344,-7.11328 -2.29687,-14.48047 -9.17578,-17.64453 -2.14453,-0.98828 -4.43359,-1.48828 -6.78125,-1.48828 -4.95312,0 -9.55859,2.28906 -12.61328,6.01562 -0.85938,1.05078 -1.61719,2.19922 -2.19531,3.46875 0.004,-0.0117 0.004,-0.0234 0.0117,-0.0352 l -0.0195,0.0352 c 0,0.004 -0.004,0.0117 -0.0117,0.0195 l -32.54688,70.75782 c -0.16797,0.3789 -0.26172,0.76953 -0.40234,1.15625 z m 0,0"
             fill-opacity="1"
             fill-rule="nonzero"
             id="path929" /><path
             fill="#ffffff"
             d="m 199.12109,103.85938 c 0.6875,0.6914 1.13672,1.59375 1.46485,2.58203 0.77343,2.33984 0.64453,5.33984 0.004,8.3789 -0.32812,1.55078 -0.76953,3.08985 -1.29687,4.54688 -0.19922,0.55859 -0.40235,1.125 -0.62891,1.65234 -0.33203,0.80469 -0.76562,1.74219 -1.27344,2.73438 -4.41015,8.71875 -15.76171,23.37109 -42.42187,24.28125 -0.0156,0 -0.0352,0.004 -0.0508,0.004 l -11.10938,23.11328 c 6.94141,1.63672 19.29297,5.51172 30,13.86328 l 36.21094,-78.72265 c 0.59375,-1.28125 0.9375,-2.60547 1.17578,-3.9375 1.26953,-7.125001 -2.29687,-14.496095 -9.17187,-17.652345 -2.15235,-0.984375 -4.44141,-1.488281 -6.78516,-1.488281 -4.94922,0 -9.55469,2.285156 -12.60547,6.015625 -0.87109,1.050781 -1.625,2.199219 -2.21094,3.46875 0.004,-0.01172 0.004,-0.01563 0.0156,-0.02734 l -0.0156,0.02734 -0.0117,0.01953 -4.57422,9.953131 h 22.09375 z m 0,0"
             fill-opacity="1"
             fill-rule="nonzero"
             id="path931" /><path
             fill="#ffffff"
             d="m 156.25,102.66797 h 10.61719 l 6.12109,-13.332032 c 0.58984,-1.285157 0.9375,-2.609376 1.17188,-3.941407 1.26953,-7.117187 -2.29297,-14.484375 -9.16797,-17.644531 -2.16016,-0.984375 -4.44141,-1.496094 -6.78907,-1.496094 -4.94921,0 -9.55468,2.289063 -12.60937,6.019532 -0.85938,1.050781 -1.62109,2.199218 -2.20313,3.472656 0,0.0039 -0.0117,0.01172 -0.0117,0.01563 l -12.35938,26.906256 z m 0,0"
             fill-opacity="1"
             fill-rule="nonzero"
             id="path933" /><path
             fill="#ffffff"
             d="m 173.01953,89.292969 0.008,-0.01953 -0.0234,0.05859 z m 0,0"
             fill-opacity="1"
             fill-rule="nonzero"
             id="path935" /><path
             fill="#ffffff"
             d="m 243.33984,150.78125 h -0.004 v 0.004 z m 0,0"
             fill-opacity="1"
             fill-rule="nonzero"
             id="path937" /><path
             fill="#ffffff"
             d="m 212.24219,198.88281 0.008,-0.0117 -0.008,0.004 z m 0,0"
             fill-opacity="1"
             fill-rule="nonzero"
             id="path939" /><path
             fill="#ffffff"
             d="m 212.25391,198.85156 -0.004,0.0117 v 0.004 z m 0,0"
             fill-opacity="1"
             fill-rule="nonzero"
             id="path941" /><g
             clip-path="url(#839ba0e78e)"
             id="g945"><path
               fill="#ffffff"
               d="m 271.58203,163.78125 c 0,-1.82813 -1.01953,-5.60938 -1.05859,-5.64453 C 268.21875,151.9375 262.29297,147.5 255.29687,147.5 c -1.47265,0 -2.875,0.26172 -4.23046,0.625 -2.35547,0.63281 -4.48047,1.78125 -6.28907,3.31641 -2.125,1.80859 -3.76172,4.11718 -4.73828,6.78515 -0.0117,0.0352 -0.0195,0.0742 -0.0352,0.10938 l -20.35547,43.9375 h 0.008 c -0.60156,1.30859 -0.90234,2.67578 -0.97266,4.03515 -0.0234,0.48438 0,0.96485 0.0352,1.44141 0.3125,3.82422 2.60547,7.37891 6.33594,9.09375 1.77343,0.81641 3.68359,1.0625 5.54687,0.87109 2.42578,-0.2539 4.76953,-1.26562 6.57422,-2.91797 0.86719,-0.79687 1.58203,-1.76171 2.14453,-2.82031 l 10.57422,-22.82422 7.39453,3.41016 0.73438,-1.59375 -10.97657,23.86719 -0.0195,0.0352 c -0.17968,0.39453 -0.39843,0.75782 -0.61718,1.13282 -0.45313,0.8125 -0.96094,1.60546 -1.51954,2.33984 -1.14843,1.52344 -2.52343,2.83594 -4.04296,3.9375 -2.95313,2.14844 -6.49219,3.46484 -10.25,3.65234 -0.32813,0.0234 -0.64063,0.0625 -0.96094,0.0625 h -0.004 c -2.76562,0 -5.44922,-0.58984 -7.98437,-1.75 -3.78907,-1.75 -6.69922,-4.58984 -8.61328,-7.97265 -0.92188,-1.63282 -1.57422,-3.39063 -1.98829,-5.22266 -0.15625,-0.67969 -0.28125,-1.36328 -0.35937,-2.06641 -1.26172,0.64844 -2.55859,1.21094 -3.92188,1.62891 -2.27734,0.69531 -4.67578,1.07813 -7.11328,1.07813 h -0.004 c -2.83203,0 -4.72266,-0.50391 -7.36719,-1.45704 1.50391,4.91407 2.4375,10.33985 2.4375,16.5 v 30.85157 h -8.14453 v -30.85157 c 0,-7.38671 -2.3125,-13.64453 -4.6875,-18.98437 -11.12891,-25.04688 -42.91016,-29.37891 -44.53125,-29.57813 l -5.61719,-0.70312 18.02734,-37.52344 h 2.56641 c 0.68359,0 1.26172,-0.0859 1.91406,-0.10156 1.57813,-0.0469 3.15235,-0.0977 4.60157,-0.24609 15.53515,-1.60938 24.05859,-8.84766 28.5664,-15.05078 0.39063,-0.53516 0.73047,-1.07422 1.07422,-1.60547 0.79688,-1.25 1.46094,-2.46875 2.02344,-3.65625 0.64062,-1.35938 1.14062,-2.65625 1.51562,-3.85157 0.57032,-1.83984 0.875,-3.4375 0.96094,-4.625 h -67.39844 c -8.0664,0 -15.12109,4.27344 -19.0664,10.67188 -0.92188,1.49219 -1.67969,3.09375 -2.23828,4.78906 l -21.171879,45.37109 -1.085937,2.33204 c -1.046875,2.58593 -1.636719,5.40625 -1.636719,8.36718 0,4.05078 1.097656,7.83985 2.976563,11.1211 l 2.289062,3.28125 52.03125,68.85156 v 93.74219 h 97.76953 v 0.008 h 8.14453 l 0.008,-69.19531 25.875,-52.62891 c 0.36329,-0.65625 0.71094,-1.30859 0.98829,-2.01562 0.67968,-1.73829 1.07421,-3.61719 1.10937,-5.58985 0.004,-0.10156 0,-66.13281 0,-66.13281 z m 0,0"
               fill-opacity="1"
               fill-rule="nonzero"
               id="path943" /></g><g
             clip-path="url(#7b18dbd44c)"
             id="g949"><path
               fill="#ffffff"
               d="m 142.19141,352.46484 h 94.92187 v 14.0625 h -94.92187 z m 0,0"
               fill-opacity="1"
               fill-rule="nonzero"
               id="path947" /></g></g></g></mask><mask
       maskUnits="userSpaceOnUse"
       id="mask955"><g
         id="g987"><g
           id="g985"
           transform="scale(0.99688476,0.99999996)"><path
             fill="#000000"
             d="M 0,0 H 376.17187 V 374.41406 H 0 Z m 0,0"
             fill-opacity="1"
             fill-rule="nonzero"
             id="path957" /><g
             clip-path="url(#3e6bae8208)"
             id="g961"><path
               stroke-linecap="butt"
               transform="matrix(0.75,0,0,0.75,4.5e-6,0)"
               fill="none"
               stroke-linejoin="miter"
               d="M 249.99999,0 C 111.92708,0 -6e-6,111.92708 -6e-6,250 -6e-6,388.07292 111.92708,500 249.99999,500 388.07291,500 500,388.07292 500,250 500,111.92708 388.07291,0 249.99999,0"
               stroke="#ffffff"
               stroke-width="72"
               stroke-opacity="1"
               stroke-miterlimit="4"
               id="path959" /></g><path
             fill="#ffffff"
             d="m 184.46094,181.62891 c -0.49219,1.3164 -0.8125,2.66796 -0.94922,4.04296 -0.15625,1.51563 -0.11328,3.04297 0.16797,4.55469 0.16797,0.90625 0.38281,1.8086 0.70703,2.69141 1.51172,4.08203 4.51172,7.32422 8.46875,9.14062 2.15625,0.99219 4.4414,1.49219 6.79297,1.49219 2.92187,0 5.71484,-0.82031 8.15625,-2.24219 1.32031,-0.76562 2.53125,-1.71093 3.60156,-2.82422 0.95312,-0.99218 1.77734,-2.125 2.46094,-3.35546 0.19531,-0.35547 0.41797,-0.69532 0.58593,-1.07032 0,0 32.4961,-70.6289 32.56641,-70.77343 0.0664,-0.15235 0.98047,-2.85157 1.17578,-3.94141 1.27344,-7.11328 -2.29687,-14.48047 -9.17578,-17.64453 -2.14453,-0.98828 -4.43359,-1.48828 -6.78125,-1.48828 -4.95312,0 -9.55859,2.28906 -12.61328,6.01562 -0.85938,1.05078 -1.61719,2.19922 -2.19531,3.46875 0.004,-0.0117 0.004,-0.0234 0.0117,-0.0352 l -0.0195,0.0352 c 0,0.004 -0.004,0.0117 -0.0117,0.0195 l -32.54688,70.75782 c -0.16797,0.3789 -0.26172,0.76953 -0.40234,1.15625 z m 0,0"
             fill-opacity="1"
             fill-rule="nonzero"
             id="path963" /><path
             fill="#ffffff"
             d="m 199.12109,103.85938 c 0.6875,0.6914 1.13672,1.59375 1.46485,2.58203 0.77343,2.33984 0.64453,5.33984 0.004,8.3789 -0.32812,1.55078 -0.76953,3.08985 -1.29687,4.54688 -0.19922,0.55859 -0.40235,1.125 -0.62891,1.65234 -0.33203,0.80469 -0.76562,1.74219 -1.27344,2.73438 -4.41015,8.71875 -15.76171,23.37109 -42.42187,24.28125 -0.0156,0 -0.0352,0.004 -0.0508,0.004 l -11.10938,23.11328 c 6.94141,1.63672 19.29297,5.51172 30,13.86328 l 36.21094,-78.72265 c 0.59375,-1.28125 0.9375,-2.60547 1.17578,-3.9375 1.26953,-7.125001 -2.29687,-14.496095 -9.17187,-17.652345 -2.15235,-0.984375 -4.44141,-1.488281 -6.78516,-1.488281 -4.94922,0 -9.55469,2.285156 -12.60547,6.015625 -0.87109,1.050781 -1.625,2.199219 -2.21094,3.46875 0.004,-0.01172 0.004,-0.01563 0.0156,-0.02734 l -0.0156,0.02734 -0.0117,0.01953 -4.57422,9.953131 h 22.09375 z m 0,0"
             fill-opacity="1"
             fill-rule="nonzero"
             id="path965" /><path
             fill="#ffffff"
             d="m 156.25,102.66797 h 10.61719 l 6.12109,-13.332032 c 0.58984,-1.285157 0.9375,-2.609376 1.17188,-3.941407 1.26953,-7.117187 -2.29297,-14.484375 -9.16797,-17.644531 -2.16016,-0.984375 -4.44141,-1.496094 -6.78907,-1.496094 -4.94921,0 -9.55468,2.289063 -12.60937,6.019532 -0.85938,1.050781 -1.62109,2.199218 -2.20313,3.472656 0,0.0039 -0.0117,0.01172 -0.0117,0.01563 l -12.35938,26.906256 z m 0,0"
             fill-opacity="1"
             fill-rule="nonzero"
             id="path967" /><path
             fill="#ffffff"
             d="m 173.01953,89.292969 0.008,-0.01953 -0.0234,0.05859 z m 0,0"
             fill-opacity="1"
             fill-rule="nonzero"
             id="path969" /><path
             fill="#ffffff"
             d="m 243.33984,150.78125 h -0.004 v 0.004 z m 0,0"
             fill-opacity="1"
             fill-rule="nonzero"
             id="path971" /><path
             fill="#ffffff"
             d="m 212.24219,198.88281 0.008,-0.0117 -0.008,0.004 z m 0,0"
             fill-opacity="1"
             fill-rule="nonzero"
             id="path973" /><path
             fill="#ffffff"
             d="m 212.25391,198.85156 -0.004,0.0117 v 0.004 z m 0,0"
             fill-opacity="1"
             fill-rule="nonzero"
             id="path975" /><g
             clip-path="url(#839ba0e78e)"
             id="g979"><path
               fill="#ffffff"
               d="m 271.58203,163.78125 c 0,-1.82813 -1.01953,-5.60938 -1.05859,-5.64453 C 268.21875,151.9375 262.29297,147.5 255.29687,147.5 c -1.47265,0 -2.875,0.26172 -4.23046,0.625 -2.35547,0.63281 -4.48047,1.78125 -6.28907,3.31641 -2.125,1.80859 -3.76172,4.11718 -4.73828,6.78515 -0.0117,0.0352 -0.0195,0.0742 -0.0352,0.10938 l -20.35547,43.9375 h 0.008 c -0.60156,1.30859 -0.90234,2.67578 -0.97266,4.03515 -0.0234,0.48438 0,0.96485 0.0352,1.44141 0.3125,3.82422 2.60547,7.37891 6.33594,9.09375 1.77343,0.81641 3.68359,1.0625 5.54687,0.87109 2.42578,-0.2539 4.76953,-1.26562 6.57422,-2.91797 0.86719,-0.79687 1.58203,-1.76171 2.14453,-2.82031 l 10.57422,-22.82422 7.39453,3.41016 0.73438,-1.59375 -10.97657,23.86719 -0.0195,0.0352 c -0.17968,0.39453 -0.39843,0.75782 -0.61718,1.13282 -0.45313,0.8125 -0.96094,1.60546 -1.51954,2.33984 -1.14843,1.52344 -2.52343,2.83594 -4.04296,3.9375 -2.95313,2.14844 -6.49219,3.46484 -10.25,3.65234 -0.32813,0.0234 -0.64063,0.0625 -0.96094,0.0625 h -0.004 c -2.76562,0 -5.44922,-0.58984 -7.98437,-1.75 -3.78907,-1.75 -6.69922,-4.58984 -8.61328,-7.97265 -0.92188,-1.63282 -1.57422,-3.39063 -1.98829,-5.22266 -0.15625,-0.67969 -0.28125,-1.36328 -0.35937,-2.06641 -1.26172,0.64844 -2.55859,1.21094 -3.92188,1.62891 -2.27734,0.69531 -4.67578,1.07813 -7.11328,1.07813 h -0.004 c -2.83203,0 -4.72266,-0.50391 -7.36719,-1.45704 1.50391,4.91407 2.4375,10.33985 2.4375,16.5 v 30.85157 h -8.14453 v -30.85157 c 0,-7.38671 -2.3125,-13.64453 -4.6875,-18.98437 -11.12891,-25.04688 -42.91016,-29.37891 -44.53125,-29.57813 l -5.61719,-0.70312 18.02734,-37.52344 h 2.56641 c 0.68359,0 1.26172,-0.0859 1.91406,-0.10156 1.57813,-0.0469 3.15235,-0.0977 4.60157,-0.24609 15.53515,-1.60938 24.05859,-8.84766 28.5664,-15.05078 0.39063,-0.53516 0.73047,-1.07422 1.07422,-1.60547 0.79688,-1.25 1.46094,-2.46875 2.02344,-3.65625 0.64062,-1.35938 1.14062,-2.65625 1.51562,-3.85157 0.57032,-1.83984 0.875,-3.4375 0.96094,-4.625 h -67.39844 c -8.0664,0 -15.12109,4.27344 -19.0664,10.67188 -0.92188,1.49219 -1.67969,3.09375 -2.23828,4.78906 l -21.171879,45.37109 -1.085937,2.33204 c -1.046875,2.58593 -1.636719,5.40625 -1.636719,8.36718 0,4.05078 1.097656,7.83985 2.976563,11.1211 l 2.289062,3.28125 52.03125,68.85156 v 93.74219 h 97.76953 v 0.008 h 8.14453 l 0.008,-69.19531 25.875,-52.62891 c 0.36329,-0.65625 0.71094,-1.30859 0.98829,-2.01562 0.67968,-1.73829 1.07421,-3.61719 1.10937,-5.58985 0.004,-0.10156 0,-66.13281 0,-66.13281 z m 0,0"
               fill-opacity="1"
               fill-rule="nonzero"
               id="path977" /></g><g
             clip-path="url(#7b18dbd44c)"
             id="g983"><path
               fill="#ffffff"
               d="m 142.19141,352.46484 h 94.92187 v 14.0625 h -94.92187 z m 0,0"
               fill-opacity="1"
               fill-rule="nonzero"
               id="path981" /></g></g></g></mask><mask
       maskUnits="userSpaceOnUse"
       id="mask989"><g
         id="g1021"><g
           id="g1019"
           transform="scale(0.99688476,0.99999996)"><path
             fill="#000000"
             d="M 0,0 H 376.17187 V 374.41406 H 0 Z m 0,0"
             fill-opacity="1"
             fill-rule="nonzero"
             id="path991" /><g
             clip-path="url(#3e6bae8208)"
             id="g995"><path
               stroke-linecap="butt"
               transform="matrix(0.75,0,0,0.75,4.5e-6,0)"
               fill="none"
               stroke-linejoin="miter"
               d="M 249.99999,0 C 111.92708,0 -6e-6,111.92708 -6e-6,250 -6e-6,388.07292 111.92708,500 249.99999,500 388.07291,500 500,388.07292 500,250 500,111.92708 388.07291,0 249.99999,0"
               stroke="#ffffff"
               stroke-width="72"
               stroke-opacity="1"
               stroke-miterlimit="4"
               id="path993" /></g><path
             fill="#ffffff"
             d="m 184.46094,181.62891 c -0.49219,1.3164 -0.8125,2.66796 -0.94922,4.04296 -0.15625,1.51563 -0.11328,3.04297 0.16797,4.55469 0.16797,0.90625 0.38281,1.8086 0.70703,2.69141 1.51172,4.08203 4.51172,7.32422 8.46875,9.14062 2.15625,0.99219 4.4414,1.49219 6.79297,1.49219 2.92187,0 5.71484,-0.82031 8.15625,-2.24219 1.32031,-0.76562 2.53125,-1.71093 3.60156,-2.82422 0.95312,-0.99218 1.77734,-2.125 2.46094,-3.35546 0.19531,-0.35547 0.41797,-0.69532 0.58593,-1.07032 0,0 32.4961,-70.6289 32.56641,-70.77343 0.0664,-0.15235 0.98047,-2.85157 1.17578,-3.94141 1.27344,-7.11328 -2.29687,-14.48047 -9.17578,-17.64453 -2.14453,-0.98828 -4.43359,-1.48828 -6.78125,-1.48828 -4.95312,0 -9.55859,2.28906 -12.61328,6.01562 -0.85938,1.05078 -1.61719,2.19922 -2.19531,3.46875 0.004,-0.0117 0.004,-0.0234 0.0117,-0.0352 l -0.0195,0.0352 c 0,0.004 -0.004,0.0117 -0.0117,0.0195 l -32.54688,70.75782 c -0.16797,0.3789 -0.26172,0.76953 -0.40234,1.15625 z m 0,0"
             fill-opacity="1"
             fill-rule="nonzero"
             id="path997" /><path
             fill="#ffffff"
             d="m 199.12109,103.85938 c 0.6875,0.6914 1.13672,1.59375 1.46485,2.58203 0.77343,2.33984 0.64453,5.33984 0.004,8.3789 -0.32812,1.55078 -0.76953,3.08985 -1.29687,4.54688 -0.19922,0.55859 -0.40235,1.125 -0.62891,1.65234 -0.33203,0.80469 -0.76562,1.74219 -1.27344,2.73438 -4.41015,8.71875 -15.76171,23.37109 -42.42187,24.28125 -0.0156,0 -0.0352,0.004 -0.0508,0.004 l -11.10938,23.11328 c 6.94141,1.63672 19.29297,5.51172 30,13.86328 l 36.21094,-78.72265 c 0.59375,-1.28125 0.9375,-2.60547 1.17578,-3.9375 1.26953,-7.125001 -2.29687,-14.496095 -9.17187,-17.652345 -2.15235,-0.984375 -4.44141,-1.488281 -6.78516,-1.488281 -4.94922,0 -9.55469,2.285156 -12.60547,6.015625 -0.87109,1.050781 -1.625,2.199219 -2.21094,3.46875 0.004,-0.01172 0.004,-0.01563 0.0156,-0.02734 l -0.0156,0.02734 -0.0117,0.01953 -4.57422,9.953131 h 22.09375 z m 0,0"
             fill-opacity="1"
             fill-rule="nonzero"
             id="path999" /><path
             fill="#ffffff"
             d="m 156.25,102.66797 h 10.61719 l 6.12109,-13.332032 c 0.58984,-1.285157 0.9375,-2.609376 1.17188,-3.941407 1.26953,-7.117187 -2.29297,-14.484375 -9.16797,-17.644531 -2.16016,-0.984375 -4.44141,-1.496094 -6.78907,-1.496094 -4.94921,0 -9.55468,2.289063 -12.60937,6.019532 -0.85938,1.050781 -1.62109,2.199218 -2.20313,3.472656 0,0.0039 -0.0117,0.01172 -0.0117,0.01563 l -12.35938,26.906256 z m 0,0"
             fill-opacity="1"
             fill-rule="nonzero"
             id="path1001" /><path
             fill="#ffffff"
             d="m 173.01953,89.292969 0.008,-0.01953 -0.0234,0.05859 z m 0,0"
             fill-opacity="1"
             fill-rule="nonzero"
             id="path1003" /><path
             fill="#ffffff"
             d="m 243.33984,150.78125 h -0.004 v 0.004 z m 0,0"
             fill-opacity="1"
             fill-rule="nonzero"
             id="path1005" /><path
             fill="#ffffff"
             d="m 212.24219,198.88281 0.008,-0.0117 -0.008,0.004 z m 0,0"
             fill-opacity="1"
             fill-rule="nonzero"
             id="path1007" /><path
             fill="#ffffff"
             d="m 212.25391,198.85156 -0.004,0.0117 v 0.004 z m 0,0"
             fill-opacity="1"
             fill-rule="nonzero"
             id="path1009" /><g
             clip-path="url(#839ba0e78e)"
             id="g1013"><path
               fill="#ffffff"
               d="m 271.58203,163.78125 c 0,-1.82813 -1.01953,-5.60938 -1.05859,-5.64453 C 268.21875,151.9375 262.29297,147.5 255.29687,147.5 c -1.47265,0 -2.875,0.26172 -4.23046,0.625 -2.35547,0.63281 -4.48047,1.78125 -6.28907,3.31641 -2.125,1.80859 -3.76172,4.11718 -4.73828,6.78515 -0.0117,0.0352 -0.0195,0.0742 -0.0352,0.10938 l -20.35547,43.9375 h 0.008 c -0.60156,1.30859 -0.90234,2.67578 -0.97266,4.03515 -0.0234,0.48438 0,0.96485 0.0352,1.44141 0.3125,3.82422 2.60547,7.37891 6.33594,9.09375 1.77343,0.81641 3.68359,1.0625 5.54687,0.87109 2.42578,-0.2539 4.76953,-1.26562 6.57422,-2.91797 0.86719,-0.79687 1.58203,-1.76171 2.14453,-2.82031 l 10.57422,-22.82422 7.39453,3.41016 0.73438,-1.59375 -10.97657,23.86719 -0.0195,0.0352 c -0.17968,0.39453 -0.39843,0.75782 -0.61718,1.13282 -0.45313,0.8125 -0.96094,1.60546 -1.51954,2.33984 -1.14843,1.52344 -2.52343,2.83594 -4.04296,3.9375 -2.95313,2.14844 -6.49219,3.46484 -10.25,3.65234 -0.32813,0.0234 -0.64063,0.0625 -0.96094,0.0625 h -0.004 c -2.76562,0 -5.44922,-0.58984 -7.98437,-1.75 -3.78907,-1.75 -6.69922,-4.58984 -8.61328,-7.97265 -0.92188,-1.63282 -1.57422,-3.39063 -1.98829,-5.22266 -0.15625,-0.67969 -0.28125,-1.36328 -0.35937,-2.06641 -1.26172,0.64844 -2.55859,1.21094 -3.92188,1.62891 -2.27734,0.69531 -4.67578,1.07813 -7.11328,1.07813 h -0.004 c -2.83203,0 -4.72266,-0.50391 -7.36719,-1.45704 1.50391,4.91407 2.4375,10.33985 2.4375,16.5 v 30.85157 h -8.14453 v -30.85157 c 0,-7.38671 -2.3125,-13.64453 -4.6875,-18.98437 -11.12891,-25.04688 -42.91016,-29.37891 -44.53125,-29.57813 l -5.61719,-0.70312 18.02734,-37.52344 h 2.56641 c 0.68359,0 1.26172,-0.0859 1.91406,-0.10156 1.57813,-0.0469 3.15235,-0.0977 4.60157,-0.24609 15.53515,-1.60938 24.05859,-8.84766 28.5664,-15.05078 0.39063,-0.53516 0.73047,-1.07422 1.07422,-1.60547 0.79688,-1.25 1.46094,-2.46875 2.02344,-3.65625 0.64062,-1.35938 1.14062,-2.65625 1.51562,-3.85157 0.57032,-1.83984 0.875,-3.4375 0.96094,-4.625 h -67.39844 c -8.0664,0 -15.12109,4.27344 -19.0664,10.67188 -0.92188,1.49219 -1.67969,3.09375 -2.23828,4.78906 l -21.171879,45.37109 -1.085937,2.33204 c -1.046875,2.58593 -1.636719,5.40625 -1.636719,8.36718 0,4.05078 1.097656,7.83985 2.976563,11.1211 l 2.289062,3.28125 52.03125,68.85156 v 93.74219 h 97.76953 v 0.008 h 8.14453 l 0.008,-69.19531 25.875,-52.62891 c 0.36329,-0.65625 0.71094,-1.30859 0.98829,-2.01562 0.67968,-1.73829 1.07421,-3.61719 1.10937,-5.58985 0.004,-0.10156 0,-66.13281 0,-66.13281 z m 0,0"
               fill-opacity="1"
               fill-rule="nonzero"
               id="path1011" /></g><g
             clip-path="url(#7b18dbd44c)"
             id="g1017"><path
               fill="#ffffff"
               d="m 142.19141,352.46484 h 94.92187 v 14.0625 h -94.92187 z m 0,0"
               fill-opacity="1"
               fill-rule="nonzero"
               id="path1015" /></g></g></g></mask><mask
       maskUnits="userSpaceOnUse"
       id="mask1023"><g
         id="g1055"><g
           id="g1053"
           transform="scale(0.99688476,0.99999996)"><path
             fill="#000000"
             d="M 0,0 H 376.17187 V 374.41406 H 0 Z m 0,0"
             fill-opacity="1"
             fill-rule="nonzero"
             id="path1025" /><g
             clip-path="url(#3e6bae8208)"
             id="g1029"><path
               stroke-linecap="butt"
               transform="matrix(0.75,0,0,0.75,4.5e-6,0)"
               fill="none"
               stroke-linejoin="miter"
               d="M 249.99999,0 C 111.92708,0 -6e-6,111.92708 -6e-6,250 -6e-6,388.07292 111.92708,500 249.99999,500 388.07291,500 500,388.07292 500,250 500,111.92708 388.07291,0 249.99999,0"
               stroke="#ffffff"
               stroke-width="72"
               stroke-opacity="1"
               stroke-miterlimit="4"
               id="path1027" /></g><path
             fill="#ffffff"
             d="m 184.46094,181.62891 c -0.49219,1.3164 -0.8125,2.66796 -0.94922,4.04296 -0.15625,1.51563 -0.11328,3.04297 0.16797,4.55469 0.16797,0.90625 0.38281,1.8086 0.70703,2.69141 1.51172,4.08203 4.51172,7.32422 8.46875,9.14062 2.15625,0.99219 4.4414,1.49219 6.79297,1.49219 2.92187,0 5.71484,-0.82031 8.15625,-2.24219 1.32031,-0.76562 2.53125,-1.71093 3.60156,-2.82422 0.95312,-0.99218 1.77734,-2.125 2.46094,-3.35546 0.19531,-0.35547 0.41797,-0.69532 0.58593,-1.07032 0,0 32.4961,-70.6289 32.56641,-70.77343 0.0664,-0.15235 0.98047,-2.85157 1.17578,-3.94141 1.27344,-7.11328 -2.29687,-14.48047 -9.17578,-17.64453 -2.14453,-0.98828 -4.43359,-1.48828 -6.78125,-1.48828 -4.95312,0 -9.55859,2.28906 -12.61328,6.01562 -0.85938,1.05078 -1.61719,2.19922 -2.19531,3.46875 0.004,-0.0117 0.004,-0.0234 0.0117,-0.0352 l -0.0195,0.0352 c 0,0.004 -0.004,0.0117 -0.0117,0.0195 l -32.54688,70.75782 c -0.16797,0.3789 -0.26172,0.76953 -0.40234,1.15625 z m 0,0"
             fill-opacity="1"
             fill-rule="nonzero"
             id="path1031" /><path
             fill="#ffffff"
             d="m 199.12109,103.85938 c 0.6875,0.6914 1.13672,1.59375 1.46485,2.58203 0.77343,2.33984 0.64453,5.33984 0.004,8.3789 -0.32812,1.55078 -0.76953,3.08985 -1.29687,4.54688 -0.19922,0.55859 -0.40235,1.125 -0.62891,1.65234 -0.33203,0.80469 -0.76562,1.74219 -1.27344,2.73438 -4.41015,8.71875 -15.76171,23.37109 -42.42187,24.28125 -0.0156,0 -0.0352,0.004 -0.0508,0.004 l -11.10938,23.11328 c 6.94141,1.63672 19.29297,5.51172 30,13.86328 l 36.21094,-78.72265 c 0.59375,-1.28125 0.9375,-2.60547 1.17578,-3.9375 1.26953,-7.125001 -2.29687,-14.496095 -9.17187,-17.652345 -2.15235,-0.984375 -4.44141,-1.488281 -6.78516,-1.488281 -4.94922,0 -9.55469,2.285156 -12.60547,6.015625 -0.87109,1.050781 -1.625,2.199219 -2.21094,3.46875 0.004,-0.01172 0.004,-0.01563 0.0156,-0.02734 l -0.0156,0.02734 -0.0117,0.01953 -4.57422,9.953131 h 22.09375 z m 0,0"
             fill-opacity="1"
             fill-rule="nonzero"
             id="path1033" /><path
             fill="#ffffff"
             d="m 156.25,102.66797 h 10.61719 l 6.12109,-13.332032 c 0.58984,-1.285157 0.9375,-2.609376 1.17188,-3.941407 1.26953,-7.117187 -2.29297,-14.484375 -9.16797,-17.644531 -2.16016,-0.984375 -4.44141,-1.496094 -6.78907,-1.496094 -4.94921,0 -9.55468,2.289063 -12.60937,6.019532 -0.85938,1.050781 -1.62109,2.199218 -2.20313,3.472656 0,0.0039 -0.0117,0.01172 -0.0117,0.01563 l -12.35938,26.906256 z m 0,0"
             fill-opacity="1"
             fill-rule="nonzero"
             id="path1035" /><path
             fill="#ffffff"
             d="m 173.01953,89.292969 0.008,-0.01953 -0.0234,0.05859 z m 0,0"
             fill-opacity="1"
             fill-rule="nonzero"
             id="path1037" /><path
             fill="#ffffff"
             d="m 243.33984,150.78125 h -0.004 v 0.004 z m 0,0"
             fill-opacity="1"
             fill-rule="nonzero"
             id="path1039" /><path
             fill="#ffffff"
             d="m 212.24219,198.88281 0.008,-0.0117 -0.008,0.004 z m 0,0"
             fill-opacity="1"
             fill-rule="nonzero"
             id="path1041" /><path
             fill="#ffffff"
             d="m 212.25391,198.85156 -0.004,0.0117 v 0.004 z m 0,0"
             fill-opacity="1"
             fill-rule="nonzero"
             id="path1043" /><g
             clip-path="url(#839ba0e78e)"
             id="g1047"><path
               fill="#ffffff"
               d="m 271.58203,163.78125 c 0,-1.82813 -1.01953,-5.60938 -1.05859,-5.64453 C 268.21875,151.9375 262.29297,147.5 255.29687,147.5 c -1.47265,0 -2.875,0.26172 -4.23046,0.625 -2.35547,0.63281 -4.48047,1.78125 -6.28907,3.31641 -2.125,1.80859 -3.76172,4.11718 -4.73828,6.78515 -0.0117,0.0352 -0.0195,0.0742 -0.0352,0.10938 l -20.35547,43.9375 h 0.008 c -0.60156,1.30859 -0.90234,2.67578 -0.97266,4.03515 -0.0234,0.48438 0,0.96485 0.0352,1.44141 0.3125,3.82422 2.60547,7.37891 6.33594,9.09375 1.77343,0.81641 3.68359,1.0625 5.54687,0.87109 2.42578,-0.2539 4.76953,-1.26562 6.57422,-2.91797 0.86719,-0.79687 1.58203,-1.76171 2.14453,-2.82031 l 10.57422,-22.82422 7.39453,3.41016 0.73438,-1.59375 -10.97657,23.86719 -0.0195,0.0352 c -0.17968,0.39453 -0.39843,0.75782 -0.61718,1.13282 -0.45313,0.8125 -0.96094,1.60546 -1.51954,2.33984 -1.14843,1.52344 -2.52343,2.83594 -4.04296,3.9375 -2.95313,2.14844 -6.49219,3.46484 -10.25,3.65234 -0.32813,0.0234 -0.64063,0.0625 -0.96094,0.0625 h -0.004 c -2.76562,0 -5.44922,-0.58984 -7.98437,-1.75 -3.78907,-1.75 -6.69922,-4.58984 -8.61328,-7.97265 -0.92188,-1.63282 -1.57422,-3.39063 -1.98829,-5.22266 -0.15625,-0.67969 -0.28125,-1.36328 -0.35937,-2.06641 -1.26172,0.64844 -2.55859,1.21094 -3.92188,1.62891 -2.27734,0.69531 -4.67578,1.07813 -7.11328,1.07813 h -0.004 c -2.83203,0 -4.72266,-0.50391 -7.36719,-1.45704 1.50391,4.91407 2.4375,10.33985 2.4375,16.5 v 30.85157 h -8.14453 v -30.85157 c 0,-7.38671 -2.3125,-13.64453 -4.6875,-18.98437 -11.12891,-25.04688 -42.91016,-29.37891 -44.53125,-29.57813 l -5.61719,-0.70312 18.02734,-37.52344 h 2.56641 c 0.68359,0 1.26172,-0.0859 1.91406,-0.10156 1.57813,-0.0469 3.15235,-0.0977 4.60157,-0.24609 15.53515,-1.60938 24.05859,-8.84766 28.5664,-15.05078 0.39063,-0.53516 0.73047,-1.07422 1.07422,-1.60547 0.79688,-1.25 1.46094,-2.46875 2.02344,-3.65625 0.64062,-1.35938 1.14062,-2.65625 1.51562,-3.85157 0.57032,-1.83984 0.875,-3.4375 0.96094,-4.625 h -67.39844 c -8.0664,0 -15.12109,4.27344 -19.0664,10.67188 -0.92188,1.49219 -1.67969,3.09375 -2.23828,4.78906 l -21.171879,45.37109 -1.085937,2.33204 c -1.046875,2.58593 -1.636719,5.40625 -1.636719,8.36718 0,4.05078 1.097656,7.83985 2.976563,11.1211 l 2.289062,3.28125 52.03125,68.85156 v 93.74219 h 97.76953 v 0.008 h 8.14453 l 0.008,-69.19531 25.875,-52.62891 c 0.36329,-0.65625 0.71094,-1.30859 0.98829,-2.01562 0.67968,-1.73829 1.07421,-3.61719 1.10937,-5.58985 0.004,-0.10156 0,-66.13281 0,-66.13281 z m 0,0"
               fill-opacity="1"
               fill-rule="nonzero"
               id="path1045" /></g><g
             clip-path="url(#7b18dbd44c)"
             id="g1051"><path
               fill="#ffffff"
               d="m 142.19141,352.46484 h 94.92187 v 14.0625 h -94.92187 z m 0,0"
               fill-opacity="1"
               fill-rule="nonzero"
               id="path1049" /></g></g></g></mask><mask
       maskUnits="userSpaceOnUse"
       id="mask1057"><g
         id="g1089"><g
           id="g1087"
           transform="scale(0.99688476,0.99999996)"><path
             fill="#000000"
             d="M 0,0 H 376.17187 V 374.41406 H 0 Z m 0,0"
             fill-opacity="1"
             fill-rule="nonzero"
             id="path1059" /><g
             clip-path="url(#3e6bae8208)"
             id="g1063"><path
               stroke-linecap="butt"
               transform="matrix(0.75,0,0,0.75,4.5e-6,0)"
               fill="none"
               stroke-linejoin="miter"
               d="M 249.99999,0 C 111.92708,0 -6e-6,111.92708 -6e-6,250 -6e-6,388.07292 111.92708,500 249.99999,500 388.07291,500 500,388.07292 500,250 500,111.92708 388.07291,0 249.99999,0"
               stroke="#ffffff"
               stroke-width="72"
               stroke-opacity="1"
               stroke-miterlimit="4"
               id="path1061" /></g><path
             fill="#ffffff"
             d="m 184.46094,181.62891 c -0.49219,1.3164 -0.8125,2.66796 -0.94922,4.04296 -0.15625,1.51563 -0.11328,3.04297 0.16797,4.55469 0.16797,0.90625 0.38281,1.8086 0.70703,2.69141 1.51172,4.08203 4.51172,7.32422 8.46875,9.14062 2.15625,0.99219 4.4414,1.49219 6.79297,1.49219 2.92187,0 5.71484,-0.82031 8.15625,-2.24219 1.32031,-0.76562 2.53125,-1.71093 3.60156,-2.82422 0.95312,-0.99218 1.77734,-2.125 2.46094,-3.35546 0.19531,-0.35547 0.41797,-0.69532 0.58593,-1.07032 0,0 32.4961,-70.6289 32.56641,-70.77343 0.0664,-0.15235 0.98047,-2.85157 1.17578,-3.94141 1.27344,-7.11328 -2.29687,-14.48047 -9.17578,-17.64453 -2.14453,-0.98828 -4.43359,-1.48828 -6.78125,-1.48828 -4.95312,0 -9.55859,2.28906 -12.61328,6.01562 -0.85938,1.05078 -1.61719,2.19922 -2.19531,3.46875 0.004,-0.0117 0.004,-0.0234 0.0117,-0.0352 l -0.0195,0.0352 c 0,0.004 -0.004,0.0117 -0.0117,0.0195 l -32.54688,70.75782 c -0.16797,0.3789 -0.26172,0.76953 -0.40234,1.15625 z m 0,0"
             fill-opacity="1"
             fill-rule="nonzero"
             id="path1065" /><path
             fill="#ffffff"
             d="m 199.12109,103.85938 c 0.6875,0.6914 1.13672,1.59375 1.46485,2.58203 0.77343,2.33984 0.64453,5.33984 0.004,8.3789 -0.32812,1.55078 -0.76953,3.08985 -1.29687,4.54688 -0.19922,0.55859 -0.40235,1.125 -0.62891,1.65234 -0.33203,0.80469 -0.76562,1.74219 -1.27344,2.73438 -4.41015,8.71875 -15.76171,23.37109 -42.42187,24.28125 -0.0156,0 -0.0352,0.004 -0.0508,0.004 l -11.10938,23.11328 c 6.94141,1.63672 19.29297,5.51172 30,13.86328 l 36.21094,-78.72265 c 0.59375,-1.28125 0.9375,-2.60547 1.17578,-3.9375 1.26953,-7.125001 -2.29687,-14.496095 -9.17187,-17.652345 -2.15235,-0.984375 -4.44141,-1.488281 -6.78516,-1.488281 -4.94922,0 -9.55469,2.285156 -12.60547,6.015625 -0.87109,1.050781 -1.625,2.199219 -2.21094,3.46875 0.004,-0.01172 0.004,-0.01563 0.0156,-0.02734 l -0.0156,0.02734 -0.0117,0.01953 -4.57422,9.953131 h 22.09375 z m 0,0"
             fill-opacity="1"
             fill-rule="nonzero"
             id="path1067" /><path
             fill="#ffffff"
             d="m 156.25,102.66797 h 10.61719 l 6.12109,-13.332032 c 0.58984,-1.285157 0.9375,-2.609376 1.17188,-3.941407 1.26953,-7.117187 -2.29297,-14.484375 -9.16797,-17.644531 -2.16016,-0.984375 -4.44141,-1.496094 -6.78907,-1.496094 -4.94921,0 -9.55468,2.289063 -12.60937,6.019532 -0.85938,1.050781 -1.62109,2.199218 -2.20313,3.472656 0,0.0039 -0.0117,0.01172 -0.0117,0.01563 l -12.35938,26.906256 z m 0,0"
             fill-opacity="1"
             fill-rule="nonzero"
             id="path1069" /><path
             fill="#ffffff"
             d="m 173.01953,89.292969 0.008,-0.01953 -0.0234,0.05859 z m 0,0"
             fill-opacity="1"
             fill-rule="nonzero"
             id="path1071" /><path
             fill="#ffffff"
             d="m 243.33984,150.78125 h -0.004 v 0.004 z m 0,0"
             fill-opacity="1"
             fill-rule="nonzero"
             id="path1073" /><path
             fill="#ffffff"
             d="m 212.24219,198.88281 0.008,-0.0117 -0.008,0.004 z m 0,0"
             fill-opacity="1"
             fill-rule="nonzero"
             id="path1075" /><path
             fill="#ffffff"
             d="m 212.25391,198.85156 -0.004,0.0117 v 0.004 z m 0,0"
             fill-opacity="1"
             fill-rule="nonzero"
             id="path1077" /><g
             clip-path="url(#839ba0e78e)"
             id="g1081"><path
               fill="#ffffff"
               d="m 271.58203,163.78125 c 0,-1.82813 -1.01953,-5.60938 -1.05859,-5.64453 C 268.21875,151.9375 262.29297,147.5 255.29687,147.5 c -1.47265,0 -2.875,0.26172 -4.23046,0.625 -2.35547,0.63281 -4.48047,1.78125 -6.28907,3.31641 -2.125,1.80859 -3.76172,4.11718 -4.73828,6.78515 -0.0117,0.0352 -0.0195,0.0742 -0.0352,0.10938 l -20.35547,43.9375 h 0.008 c -0.60156,1.30859 -0.90234,2.67578 -0.97266,4.03515 -0.0234,0.48438 0,0.96485 0.0352,1.44141 0.3125,3.82422 2.60547,7.37891 6.33594,9.09375 1.77343,0.81641 3.68359,1.0625 5.54687,0.87109 2.42578,-0.2539 4.76953,-1.26562 6.57422,-2.91797 0.86719,-0.79687 1.58203,-1.76171 2.14453,-2.82031 l 10.57422,-22.82422 7.39453,3.41016 0.73438,-1.59375 -10.97657,23.86719 -0.0195,0.0352 c -0.17968,0.39453 -0.39843,0.75782 -0.61718,1.13282 -0.45313,0.8125 -0.96094,1.60546 -1.51954,2.33984 -1.14843,1.52344 -2.52343,2.83594 -4.04296,3.9375 -2.95313,2.14844 -6.49219,3.46484 -10.25,3.65234 -0.32813,0.0234 -0.64063,0.0625 -0.96094,0.0625 h -0.004 c -2.76562,0 -5.44922,-0.58984 -7.98437,-1.75 -3.78907,-1.75 -6.69922,-4.58984 -8.61328,-7.97265 -0.92188,-1.63282 -1.57422,-3.39063 -1.98829,-5.22266 -0.15625,-0.67969 -0.28125,-1.36328 -0.35937,-2.06641 -1.26172,0.64844 -2.55859,1.21094 -3.92188,1.62891 -2.27734,0.69531 -4.67578,1.07813 -7.11328,1.07813 h -0.004 c -2.83203,0 -4.72266,-0.50391 -7.36719,-1.45704 1.50391,4.91407 2.4375,10.33985 2.4375,16.5 v 30.85157 h -8.14453 v -30.85157 c 0,-7.38671 -2.3125,-13.64453 -4.6875,-18.98437 -11.12891,-25.04688 -42.91016,-29.37891 -44.53125,-29.57813 l -5.61719,-0.70312 18.02734,-37.52344 h 2.56641 c 0.68359,0 1.26172,-0.0859 1.91406,-0.10156 1.57813,-0.0469 3.15235,-0.0977 4.60157,-0.24609 15.53515,-1.60938 24.05859,-8.84766 28.5664,-15.05078 0.39063,-0.53516 0.73047,-1.07422 1.07422,-1.60547 0.79688,-1.25 1.46094,-2.46875 2.02344,-3.65625 0.64062,-1.35938 1.14062,-2.65625 1.51562,-3.85157 0.57032,-1.83984 0.875,-3.4375 0.96094,-4.625 h -67.39844 c -8.0664,0 -15.12109,4.27344 -19.0664,10.67188 -0.92188,1.49219 -1.67969,3.09375 -2.23828,4.78906 l -21.171879,45.37109 -1.085937,2.33204 c -1.046875,2.58593 -1.636719,5.40625 -1.636719,8.36718 0,4.05078 1.097656,7.83985 2.976563,11.1211 l 2.289062,3.28125 52.03125,68.85156 v 93.74219 h 97.76953 v 0.008 h 8.14453 l 0.008,-69.19531 25.875,-52.62891 c 0.36329,-0.65625 0.71094,-1.30859 0.98829,-2.01562 0.67968,-1.73829 1.07421,-3.61719 1.10937,-5.58985 0.004,-0.10156 0,-66.13281 0,-66.13281 z m 0,0"
               fill-opacity="1"
               fill-rule="nonzero"
               id="path1079" /></g><g
             clip-path="url(#7b18dbd44c)"
             id="g1085"><path
               fill="#ffffff"
               d="m 142.19141,352.46484 h 94.92187 v 14.0625 h -94.92187 z m 0,0"
               fill-opacity="1"
               fill-rule="nonzero"
               id="path1083" /></g></g></g></mask><mask
       maskUnits="userSpaceOnUse"
       id="mask1091"><g
         id="g1123"><g
           id="g1121"
           transform="scale(0.99688476,0.99999996)"><path
             fill="#000000"
             d="M 0,0 H 376.17187 V 374.41406 H 0 Z m 0,0"
             fill-opacity="1"
             fill-rule="nonzero"
             id="path1093" /><g
             clip-path="url(#3e6bae8208)"
             id="g1097"><path
               stroke-linecap="butt"
               transform="matrix(0.75,0,0,0.75,4.5e-6,0)"
               fill="none"
               stroke-linejoin="miter"
               d="M 249.99999,0 C 111.92708,0 -6e-6,111.92708 -6e-6,250 -6e-6,388.07292 111.92708,500 249.99999,500 388.07291,500 500,388.07292 500,250 500,111.92708 388.07291,0 249.99999,0"
               stroke="#ffffff"
               stroke-width="72"
               stroke-opacity="1"
               stroke-miterlimit="4"
               id="path1095" /></g><path
             fill="#ffffff"
             d="m 184.46094,181.62891 c -0.49219,1.3164 -0.8125,2.66796 -0.94922,4.04296 -0.15625,1.51563 -0.11328,3.04297 0.16797,4.55469 0.16797,0.90625 0.38281,1.8086 0.70703,2.69141 1.51172,4.08203 4.51172,7.32422 8.46875,9.14062 2.15625,0.99219 4.4414,1.49219 6.79297,1.49219 2.92187,0 5.71484,-0.82031 8.15625,-2.24219 1.32031,-0.76562 2.53125,-1.71093 3.60156,-2.82422 0.95312,-0.99218 1.77734,-2.125 2.46094,-3.35546 0.19531,-0.35547 0.41797,-0.69532 0.58593,-1.07032 0,0 32.4961,-70.6289 32.56641,-70.77343 0.0664,-0.15235 0.98047,-2.85157 1.17578,-3.94141 1.27344,-7.11328 -2.29687,-14.48047 -9.17578,-17.64453 -2.14453,-0.98828 -4.43359,-1.48828 -6.78125,-1.48828 -4.95312,0 -9.55859,2.28906 -12.61328,6.01562 -0.85938,1.05078 -1.61719,2.19922 -2.19531,3.46875 0.004,-0.0117 0.004,-0.0234 0.0117,-0.0352 l -0.0195,0.0352 c 0,0.004 -0.004,0.0117 -0.0117,0.0195 l -32.54688,70.75782 c -0.16797,0.3789 -0.26172,0.76953 -0.40234,1.15625 z m 0,0"
             fill-opacity="1"
             fill-rule="nonzero"
             id="path1099" /><path
             fill="#ffffff"
             d="m 199.12109,103.85938 c 0.6875,0.6914 1.13672,1.59375 1.46485,2.58203 0.77343,2.33984 0.64453,5.33984 0.004,8.3789 -0.32812,1.55078 -0.76953,3.08985 -1.29687,4.54688 -0.19922,0.55859 -0.40235,1.125 -0.62891,1.65234 -0.33203,0.80469 -0.76562,1.74219 -1.27344,2.73438 -4.41015,8.71875 -15.76171,23.37109 -42.42187,24.28125 -0.0156,0 -0.0352,0.004 -0.0508,0.004 l -11.10938,23.11328 c 6.94141,1.63672 19.29297,5.51172 30,13.86328 l 36.21094,-78.72265 c 0.59375,-1.28125 0.9375,-2.60547 1.17578,-3.9375 1.26953,-7.125001 -2.29687,-14.496095 -9.17187,-17.652345 -2.15235,-0.984375 -4.44141,-1.488281 -6.78516,-1.488281 -4.94922,0 -9.55469,2.285156 -12.60547,6.015625 -0.87109,1.050781 -1.625,2.199219 -2.21094,3.46875 0.004,-0.01172 0.004,-0.01563 0.0156,-0.02734 l -0.0156,0.02734 -0.0117,0.01953 -4.57422,9.953131 h 22.09375 z m 0,0"
             fill-opacity="1"
             fill-rule="nonzero"
             id="path1101" /><path
             fill="#ffffff"
             d="m 156.25,102.66797 h 10.61719 l 6.12109,-13.332032 c 0.58984,-1.285157 0.9375,-2.609376 1.17188,-3.941407 1.26953,-7.117187 -2.29297,-14.484375 -9.16797,-17.644531 -2.16016,-0.984375 -4.44141,-1.496094 -6.78907,-1.496094 -4.94921,0 -9.55468,2.289063 -12.60937,6.019532 -0.85938,1.050781 -1.62109,2.199218 -2.20313,3.472656 0,0.0039 -0.0117,0.01172 -0.0117,0.01563 l -12.35938,26.906256 z m 0,0"
             fill-opacity="1"
             fill-rule="nonzero"
             id="path1103" /><path
             fill="#ffffff"
             d="m 173.01953,89.292969 0.008,-0.01953 -0.0234,0.05859 z m 0,0"
             fill-opacity="1"
             fill-rule="nonzero"
             id="path1105" /><path
             fill="#ffffff"
             d="m 243.33984,150.78125 h -0.004 v 0.004 z m 0,0"
             fill-opacity="1"
             fill-rule="nonzero"
             id="path1107" /><path
             fill="#ffffff"
             d="m 212.24219,198.88281 0.008,-0.0117 -0.008,0.004 z m 0,0"
             fill-opacity="1"
             fill-rule="nonzero"
             id="path1109" /><path
             fill="#ffffff"
             d="m 212.25391,198.85156 -0.004,0.0117 v 0.004 z m 0,0"
             fill-opacity="1"
             fill-rule="nonzero"
             id="path1111" /><g
             clip-path="url(#839ba0e78e)"
             id="g1115"><path
               fill="#ffffff"
               d="m 271.58203,163.78125 c 0,-1.82813 -1.01953,-5.60938 -1.05859,-5.64453 C 268.21875,151.9375 262.29297,147.5 255.29687,147.5 c -1.47265,0 -2.875,0.26172 -4.23046,0.625 -2.35547,0.63281 -4.48047,1.78125 -6.28907,3.31641 -2.125,1.80859 -3.76172,4.11718 -4.73828,6.78515 -0.0117,0.0352 -0.0195,0.0742 -0.0352,0.10938 l -20.35547,43.9375 h 0.008 c -0.60156,1.30859 -0.90234,2.67578 -0.97266,4.03515 -0.0234,0.48438 0,0.96485 0.0352,1.44141 0.3125,3.82422 2.60547,7.37891 6.33594,9.09375 1.77343,0.81641 3.68359,1.0625 5.54687,0.87109 2.42578,-0.2539 4.76953,-1.26562 6.57422,-2.91797 0.86719,-0.79687 1.58203,-1.76171 2.14453,-2.82031 l 10.57422,-22.82422 7.39453,3.41016 0.73438,-1.59375 -10.97657,23.86719 -0.0195,0.0352 c -0.17968,0.39453 -0.39843,0.75782 -0.61718,1.13282 -0.45313,0.8125 -0.96094,1.60546 -1.51954,2.33984 -1.14843,1.52344 -2.52343,2.83594 -4.04296,3.9375 -2.95313,2.14844 -6.49219,3.46484 -10.25,3.65234 -0.32813,0.0234 -0.64063,0.0625 -0.96094,0.0625 h -0.004 c -2.76562,0 -5.44922,-0.58984 -7.98437,-1.75 -3.78907,-1.75 -6.69922,-4.58984 -8.61328,-7.97265 -0.92188,-1.63282 -1.57422,-3.39063 -1.98829,-5.22266 -0.15625,-0.67969 -0.28125,-1.36328 -0.35937,-2.06641 -1.26172,0.64844 -2.55859,1.21094 -3.92188,1.62891 -2.27734,0.69531 -4.67578,1.07813 -7.11328,1.07813 h -0.004 c -2.83203,0 -4.72266,-0.50391 -7.36719,-1.45704 1.50391,4.91407 2.4375,10.33985 2.4375,16.5 v 30.85157 h -8.14453 v -30.85157 c 0,-7.38671 -2.3125,-13.64453 -4.6875,-18.98437 -11.12891,-25.04688 -42.91016,-29.37891 -44.53125,-29.57813 l -5.61719,-0.70312 18.02734,-37.52344 h 2.56641 c 0.68359,0 1.26172,-0.0859 1.91406,-0.10156 1.57813,-0.0469 3.15235,-0.0977 4.60157,-0.24609 15.53515,-1.60938 24.05859,-8.84766 28.5664,-15.05078 0.39063,-0.53516 0.73047,-1.07422 1.07422,-1.60547 0.79688,-1.25 1.46094,-2.46875 2.02344,-3.65625 0.64062,-1.35938 1.14062,-2.65625 1.51562,-3.85157 0.57032,-1.83984 0.875,-3.4375 0.96094,-4.625 h -67.39844 c -8.0664,0 -15.12109,4.27344 -19.0664,10.67188 -0.92188,1.49219 -1.67969,3.09375 -2.23828,4.78906 l -21.171879,45.37109 -1.085937,2.33204 c -1.046875,2.58593 -1.636719,5.40625 -1.636719,8.36718 0,4.05078 1.097656,7.83985 2.976563,11.1211 l 2.289062,3.28125 52.03125,68.85156 v 93.74219 h 97.76953 v 0.008 h 8.14453 l 0.008,-69.19531 25.875,-52.62891 c 0.36329,-0.65625 0.71094,-1.30859 0.98829,-2.01562 0.67968,-1.73829 1.07421,-3.61719 1.10937,-5.58985 0.004,-0.10156 0,-66.13281 0,-66.13281 z m 0,0"
               fill-opacity="1"
               fill-rule="nonzero"
               id="path1113" /></g><g
             clip-path="url(#7b18dbd44c)"
             id="g1119"><path
               fill="#ffffff"
               d="m 142.19141,352.46484 h 94.92187 v 14.0625 h -94.92187 z m 0,0"
               fill-opacity="1"
               fill-rule="nonzero"
               id="path1117" /></g></g></g></mask></defs></svg>
